#N canvas 658 128 665 600 10;
#X declare -lib mrpeach;
#X obj 8 10 import mrpeach;
#X obj 264 144 packOSC;
#X msg 72 88 connect localhost 5123;
#X obj 60 191 udpsend;
#X msg 271 67 sine;
#X msg 271 94 /HS_Hap/type \$1;
#X connect 1 0 3 0;
#X connect 2 0 3 0;
#X connect 4 0 5 0;
#X connect 5 0 1 0;
