#N canvas 444 240 958 534 10;
#X declare -lib mrpeach;
#X obj -48 11 import mrpeach;
#X obj 147 337 packOSC;
#X msg -49 69 connect localhost 5123;
#X obj -51 507 udpsend;
#X obj -49 44 loadbang;
#X text 190 1 Haptic Feedback;
#X msg 231 113 symbol Hsine;
#X msg 314 112 symbol Hnoise;
#X msg 406 112 symbol Haudio;
#X msg 192 23 symbol Hon;
#X msg 265 23 symbol Hoff;
#X msg 262 230 Hsine 3;
#X msg 327 230 Hnoise 2;
#X msg 396 232 Haudio 1;
#X obj 587 342 packOSC;
#X text 569 2 Audio Feedback;
#X msg 566 98 symbol Avibrato;
#X msg 670 98 symbol Afilter;
#X msg 769 96 symbol Anoise;
#N canvas 0 22 450 300 AudioFbType 0;
#X obj 146 29 inlet;
#X obj 140 265 outlet;
#X msg 144 111 0;
#X msg 188 112 1;
#X msg 229 111 2;
#X obj 146 81 select Avibrato Afilter Anoise;
#X msg 140 177 /HS_Audio/type \$1;
#X connect 0 0 5 0;
#X connect 2 0 6 0;
#X connect 3 0 6 0;
#X connect 4 0 6 0;
#X connect 5 0 2 0;
#X connect 5 1 3 0;
#X connect 5 2 4 0;
#X connect 6 0 1 0;
#X restore 589 145 pd AudioFbType;
#N canvas 800 534 450 300 HapticFbEnable 0;
#X obj 146 29 inlet;
#X obj 140 265 outlet;
#X obj 146 81 select Hon Hoff;
#X msg 144 111 1;
#X msg 188 112 0;
#X msg 140 177 /HS_Hap/enable \$1;
#X connect 0 0 2 0;
#X connect 2 0 3 0;
#X connect 2 1 4 0;
#X connect 3 0 5 0;
#X connect 4 0 5 0;
#X connect 5 0 1 0;
#X restore 192 56 pd HapticFbEnable;
#N canvas 0 22 450 300 HapticFbType 0;
#X obj 146 29 inlet;
#X obj 140 265 outlet;
#X msg 140 177 /HS_Hap/type \$1;
#X msg 144 111 0;
#X msg 188 112 1;
#X msg 229 111 2;
#X obj 146 81 select Hsine Hnoise Haudio;
#X connect 0 0 6 0;
#X connect 2 0 1 0;
#X connect 3 0 2 0;
#X connect 4 0 2 0;
#X connect 5 0 2 0;
#X connect 6 0 3 0;
#X connect 6 1 4 0;
#X connect 6 2 5 0;
#X restore 233 159 pd HapticFbType;
#N canvas 364 23 670 455 HapticFbPreset 0;
#X obj 312 -12 inlet;
#X obj 290 371 outlet;
#X obj 146 81 select Hsine Hnoise Haudio;
#X obj 312 22 unpack s f;
#X symbolatom 312 51 10 0 0 0 - - -;
#X floatatom 386 51 5 0 0 0 - - -;
#X obj 261 258 gate 3;
#X msg 144 111 1;
#X msg 188 112 2;
#X msg 229 111 3;
#X msg 139 300 /HS_Hap/sine/preset \$1;
#X msg 290 299 /HS_Hap/noise/preset \$1;
#X obj 294 225 f;
#X floatatom 246 160 5 0 0 0 - - -;
#X obj 198 141 t b f;
#X msg 451 300 /HS_Hap/audio/preset \$1;
#X connect 0 0 3 0;
#X connect 2 0 7 0;
#X connect 2 1 8 0;
#X connect 2 2 9 0;
#X connect 3 0 4 0;
#X connect 3 1 5 0;
#X connect 4 0 2 0;
#X connect 5 0 12 1;
#X connect 6 0 10 0;
#X connect 6 1 11 0;
#X connect 6 2 15 0;
#X connect 7 0 14 0;
#X connect 8 0 14 0;
#X connect 9 0 14 0;
#X connect 10 0 1 0;
#X connect 11 0 1 0;
#X connect 12 0 6 1;
#X connect 14 0 12 0;
#X connect 14 1 6 0;
#X connect 14 1 13 0;
#X connect 15 0 1 0;
#X restore 262 274 pd HapticFbPreset;
#X msg 622 233 Avibrato 3;
#X msg 699 233 Afilter 2;
#X msg 773 232 Anoise 1;
#N canvas 364 23 699 450 AudioFbPreset 0;
#X obj 312 -12 inlet;
#X obj 330 395 outlet;
#X obj 312 22 unpack s f;
#X symbolatom 312 51 10 0 0 0 - - -;
#X floatatom 386 51 5 0 0 0 - - -;
#X obj 261 258 gate 3;
#X msg 144 111 1;
#X msg 188 112 2;
#X msg 229 111 3;
#X obj 294 225 f;
#X floatatom 246 160 5 0 0 0 - - -;
#X obj 198 141 t b f;
#X obj 146 81 select Avibrato Afilter Anoise;
#X msg 139 300 /HS_Audio/vibrato/preset \$1;
#X msg 330 302 /HS_Audio/filter/preset \$1;
#X msg 507 302 /HS_Audio/noise/preset \$1;
#X connect 0 0 2 0;
#X connect 2 0 3 0;
#X connect 2 1 4 0;
#X connect 3 0 12 0;
#X connect 4 0 9 1;
#X connect 5 0 13 0;
#X connect 5 1 14 0;
#X connect 5 2 15 0;
#X connect 6 0 11 0;
#X connect 7 0 11 0;
#X connect 8 0 11 0;
#X connect 9 0 5 1;
#X connect 11 0 9 0;
#X connect 11 1 5 0;
#X connect 11 1 10 0;
#X connect 12 0 6 0;
#X connect 12 1 7 0;
#X connect 12 2 8 0;
#X connect 13 0 1 0;
#X connect 14 0 1 0;
#X connect 15 0 1 0;
#X restore 622 277 pd AudioFbPreset;
#X connect 1 0 3 0;
#X connect 2 0 3 0;
#X connect 4 0 2 0;
#X connect 6 0 21 0;
#X connect 7 0 21 0;
#X connect 8 0 21 0;
#X connect 9 0 20 0;
#X connect 10 0 20 0;
#X connect 11 0 22 0;
#X connect 12 0 22 0;
#X connect 13 0 22 0;
#X connect 14 0 3 0;
#X connect 16 0 19 0;
#X connect 17 0 19 0;
#X connect 18 0 19 0;
#X connect 19 0 14 0;
#X connect 20 0 1 0;
#X connect 21 0 1 0;
#X connect 22 0 1 0;
#X connect 23 0 26 0;
#X connect 24 0 26 0;
#X connect 25 0 26 0;
#X connect 26 0 14 0;
