{
	"patcher" : 	{
		"fileversion" : 1,
		"appversion" : 		{
			"major" : 8,
			"minor" : 0,
			"revision" : 3,
			"architecture" : "x64",
			"modernui" : 1
		}
,
		"classnamespace" : "box",
		"rect" : [ 135.0, 124.0, 915.0, 738.0 ],
		"bglocked" : 0,
		"openinpresentation" : 1,
		"default_fontsize" : 12.0,
		"default_fontface" : 0,
		"default_fontname" : "Arial",
		"gridonopen" : 1,
		"gridsize" : [ 15.0, 15.0 ],
		"gridsnaponopen" : 1,
		"objectsnaponopen" : 1,
		"statusbarvisible" : 2,
		"toolbarvisible" : 1,
		"lefttoolbarpinned" : 0,
		"toptoolbarpinned" : 0,
		"righttoolbarpinned" : 0,
		"bottomtoolbarpinned" : 0,
		"toolbars_unpinned_last_save" : 0,
		"tallnewobj" : 0,
		"boxanimatetime" : 200,
		"enablehscroll" : 1,
		"enablevscroll" : 1,
		"devicewidth" : 0.0,
		"description" : "",
		"digest" : "",
		"tags" : "",
		"style" : "",
		"subpatcher_template" : "",
		"globalpatchername" : "skin_hapnoise",
		"boxes" : [ 			{
				"box" : 				{
					"fontface" : 0,
					"fontsize" : 10.0,
					"id" : "obj-33",
					"maxclass" : "comment",
					"numinlets" : 1,
					"numoutlets" : 0,
					"patching_rect" : [ 97.5, 342.0, 71.0, 18.0 ],
					"presentation" : 1,
					"presentation_rect" : [ 64.359138488769531, 241.40789794921875, 71.0, 18.0 ],
					"text" : "z to amplitude",
					"textcolor" : [ 0.847058832645416, 0.847058832645416, 0.847058832645416, 1.0 ]
				}

			}
, 			{
				"box" : 				{
					"id" : "obj-15",
					"maxclass" : "button",
					"numinlets" : 1,
					"numoutlets" : 1,
					"outlettype" : [ "bang" ],
					"parameter_enable" : 0,
					"patching_rect" : [ 542.5, 514.0, 24.0, 24.0 ]
				}

			}
, 			{
				"box" : 				{
					"id" : "obj-21",
					"maxclass" : "message",
					"numinlets" : 2,
					"numoutlets" : 1,
					"outlettype" : [ "" ],
					"patching_rect" : [ 542.5, 563.0, 165.0, 22.0 ],
					"text" : "listdump noise_zToAmp_func"
				}

			}
, 			{
				"box" : 				{
					"addpoints_with_curve" : [ 0.0, 0.0, 0, 0.0, 1000.0, 1.0, 0, 0.0, 1000.0, 1.0, 0, 0.0 ],
					"id" : "obj-13",
					"legend" : 0,
					"linecolor" : [ 0.847058823529412, 0.847058823529412, 0.847058823529412, 1.0 ],
					"maxclass" : "function",
					"mode" : 1,
					"numinlets" : 1,
					"numoutlets" : 4,
					"outlettype" : [ "float", "", "", "bang" ],
					"parameter_enable" : 0,
					"patching_rect" : [ 392.5, 563.0, 128.0, 62.0 ],
					"presentation" : 1,
					"presentation_rect" : [ 64.359138488769531, 241.273422241210938, 227.140869140625, 60.453151702880859 ],
					"varname" : "zToAmp_func"
				}

			}
, 			{
				"box" : 				{
					"angle" : 270.0,
					"border" : 2,
					"bordercolor" : [ 0.56078431372549, 0.623529411764706, 0.631372549019608, 1.0 ],
					"grad1" : [ 0.2, 0.2, 0.2, 0.8 ],
					"grad2" : [ 0.2, 0.2, 0.2, 1.0 ],
					"id" : "obj-5",
					"maxclass" : "panel",
					"mode" : 1,
					"numinlets" : 1,
					"numoutlets" : 0,
					"patching_rect" : [ 30.5, 248.0, 52.5, 67.0 ],
					"presentation" : 1,
					"presentation_rect" : [ 61.0, 238.0, 233.5, 67.0 ],
					"proportion" : 0.5
				}

			}
, 			{
				"box" : 				{
					"id" : "obj-2",
					"maxclass" : "newobj",
					"numinlets" : 1,
					"numoutlets" : 1,
					"outlettype" : [ "" ],
					"patching_rect" : [ 491.0, 236.0, 54.0, 22.0 ],
					"text" : "deferlow"
				}

			}
, 			{
				"box" : 				{
					"id" : "obj-38",
					"maxclass" : "newobj",
					"numinlets" : 2,
					"numoutlets" : 2,
					"outlettype" : [ "", "" ],
					"patching_rect" : [ 342.0, 504.0, 157.0, 22.0 ],
					"text" : "route /HS_Hap/noise/preset"
				}

			}
, 			{
				"box" : 				{
					"id" : "obj-35",
					"maxclass" : "newobj",
					"numinlets" : 0,
					"numoutlets" : 1,
					"outlettype" : [ "" ],
					"patching_rect" : [ 342.0, 472.0, 71.0, 22.0 ],
					"text" : "r osccontrol"
				}

			}
, 			{
				"box" : 				{
					"activebgoncolor" : [ 0.952941, 0.564706, 0.098039, 1.0 ],
					"appearance" : 2,
					"automation" : "store",
					"automationon" : "store",
					"hint" : "Stores the current presets to file. If you want to keep the current settings, store them in a preset before you press this button.",
					"id" : "obj-34",
					"maxclass" : "live.text",
					"mode" : 0,
					"numinlets" : 1,
					"numoutlets" : 2,
					"outlettype" : [ "", "" ],
					"parameter_enable" : 1,
					"parameter_mappable" : 0,
					"patching_rect" : [ 555.0, 95.0, 44.0, 24.0 ],
					"presentation" : 1,
					"presentation_rect" : [ 240.5, 8.0, 48.0, 20.0 ],
					"saved_attribute_attributes" : 					{
						"valueof" : 						{
							"parameter_longname" : "env_1[1]",
							"parameter_mmax" : 1.0,
							"parameter_shortname" : "live.text",
							"parameter_enum" : [ "store", "store" ],
							"parameter_type" : 2
						}

					}
,
					"text" : "store",
					"texton" : "filter",
					"varname" : "live.text"
				}

			}
, 			{
				"box" : 				{
					"id" : "obj-32",
					"maxclass" : "newobj",
					"numinlets" : 1,
					"numoutlets" : 1,
					"outlettype" : [ "int" ],
					"patching_rect" : [ 491.0, 271.0, 22.0, 22.0 ],
					"text" : "t 1"
				}

			}
, 			{
				"box" : 				{
					"id" : "obj-20",
					"maxclass" : "newobj",
					"numinlets" : 2,
					"numoutlets" : 2,
					"outlettype" : [ "", "" ],
					"patching_rect" : [ 491.0, 201.0, 63.0, 22.0 ],
					"text" : "route read"
				}

			}
, 			{
				"box" : 				{
					"id" : "obj-26",
					"maxclass" : "message",
					"numinlets" : 2,
					"numoutlets" : 1,
					"outlettype" : [ "" ],
					"patching_rect" : [ 555.0, 132.0, 63.0, 22.0 ],
					"text" : "writeagain"
				}

			}
, 			{
				"box" : 				{
					"id" : "obj-24",
					"maxclass" : "message",
					"numinlets" : 2,
					"numoutlets" : 1,
					"outlettype" : [ "" ],
					"patching_rect" : [ 714.0, 132.0, 34.0, 22.0 ],
					"text" : "write"
				}

			}
, 			{
				"box" : 				{
					"fontface" : 0,
					"fontsize" : 9.0,
					"id" : "obj-17",
					"linecount" : 4,
					"maxclass" : "comment",
					"numinlets" : 1,
					"numoutlets" : 0,
					"patching_rect" : [ 219.0, 649.0, 73.0, 47.0 ],
					"presentation" : 1,
					"presentation_linecount" : 2,
					"presentation_rect" : [ 197.0, 367.83984375, 96.0, 27.0 ],
					"text" : "click-shift = store\nclick-alt-shift = delete",
					"textcolor" : [ 0.847058832645416, 0.847058832645416, 0.847058832645416, 1.0 ],
					"textjustification" : 2
				}

			}
, 			{
				"box" : 				{
					"activefgdialcolor" : [ 0.847058823529412, 0.847058823529412, 0.847058823529412, 1.0 ],
					"activeneedlecolor" : [ 0.847058823529412, 0.847058823529412, 0.847058823529412, 1.0 ],
					"id" : "obj-16",
					"maxclass" : "live.dial",
					"numinlets" : 1,
					"numoutlets" : 2,
					"outlettype" : [ "", "float" ],
					"panelcolor" : [ 0.847058823529412, 0.847058823529412, 0.847058823529412, 1.0 ],
					"parameter_enable" : 1,
					"patching_rect" : [ 31.0, 351.5, 50.0, 48.0 ],
					"presentation" : 1,
					"presentation_rect" : [ 5.0, 246.5, 50.0, 48.0 ],
					"saved_attribute_attributes" : 					{
						"valueof" : 						{
							"parameter_longname" : "gain",
							"parameter_mmax" : 2.0,
							"parameter_steps" : 1,
							"parameter_shortname" : "gain",
							"parameter_type" : 0,
							"parameter_unitstyle" : 1,
							"parameter_linknames" : 1
						}

					}
,
					"textcolor" : [ 0.847058823529412, 0.847058823529412, 0.847058823529412, 1.0 ],
					"varname" : "gain"
				}

			}
, 			{
				"box" : 				{
					"id" : "obj-14",
					"maxclass" : "newobj",
					"numinlets" : 2,
					"numoutlets" : 2,
					"outlettype" : [ "", "" ],
					"patching_rect" : [ 491.0, 53.0, 76.0, 22.0 ],
					"text" : "route update"
				}

			}
, 			{
				"box" : 				{
					"id" : "obj-11",
					"maxclass" : "newobj",
					"numinlets" : 1,
					"numoutlets" : 1,
					"outlettype" : [ "" ],
					"patching_rect" : [ 596.0, 22.0, 150.0, 22.0 ],
					"text" : "pattrmarker skin_hapnoise"
				}

			}
, 			{
				"box" : 				{
					"comment" : "",
					"id" : "obj-9",
					"index" : 0,
					"maxclass" : "inlet",
					"numinlets" : 0,
					"numoutlets" : 1,
					"outlettype" : [ "" ],
					"patching_rect" : [ 491.0, 6.0, 30.0, 30.0 ]
				}

			}
, 			{
				"box" : 				{
					"fontface" : 1,
					"fontsize" : 10.0,
					"id" : "obj-8",
					"maxclass" : "comment",
					"numinlets" : 1,
					"numoutlets" : 0,
					"patching_rect" : [ 89.5, 649.0, 76.0, 18.0 ],
					"presentation" : 1,
					"presentation_rect" : [ 8.0, 372.33984375, 55.0, 18.0 ],
					"text" : "PRESETS",
					"textcolor" : [ 0.847058832645416, 0.847058832645416, 0.847058832645416, 1.0 ]
				}

			}
, 			{
				"box" : 				{
					"active1" : [ 0.317647, 0.654902, 0.976471, 1.0 ],
					"hint" : "control via OSC: /HS_Hap/noise/preset <int> (1..9)",
					"id" : "obj-6",
					"maxclass" : "preset",
					"numinlets" : 1,
					"numoutlets" : 4,
					"outlettype" : [ "preset", "int", "preset", "int" ],
					"patching_rect" : [ 93.0, 674.0, 90.0, 16.0 ],
					"pattrstorage" : "preset-noise",
					"presentation" : 1,
					"presentation_rect" : [ 62.5, 373.33984375, 113.0, 16.0 ],
					"stored1" : [ 0.870588, 0.415686, 0.062745, 1.0 ]
				}

			}
, 			{
				"box" : 				{
					"id" : "obj-3",
					"maxclass" : "newobj",
					"numinlets" : 1,
					"numoutlets" : 4,
					"outlettype" : [ "", "", "", "" ],
					"patching_rect" : [ 596.0, 53.0, 56.0, 22.0 ],
					"restore" : 					{
						"gain" : [ 0.992125984251968 ],
						"highFreq" : [ 500.0 ],
						"live.text" : [ 0.0 ],
						"lowFreq" : [ 10.0 ],
						"zToAmp_func" : [ 1000.0, 0.0, 1.0, 0.0, 0.0, 0, 0.0, 1000.0, 1.0, 0, 0.0, 1000.0, 1.0, 0, 0.0, "curve" ]
					}
,
					"text" : "autopattr",
					"varname" : "u012004874"
				}

			}
, 			{
				"box" : 				{
					"autorestore" : "preset-noise.json",
					"id" : "obj-1",
					"maxclass" : "newobj",
					"numinlets" : 1,
					"numoutlets" : 1,
					"outlettype" : [ "" ],
					"patching_rect" : [ 491.0, 168.0, 285.0, 22.0 ],
					"saved_object_attributes" : 					{
						"client_rect" : [ 4, 45, 828, 313 ],
						"parameter_enable" : 0,
						"parameter_mappable" : 0,
						"storage_rect" : [ 583, 69, 1034, 197 ]
					}
,
					"text" : "pattrstorage preset-noise @savemode 0 @greedy 1",
					"varname" : "preset-noise"
				}

			}
, 			{
				"box" : 				{
					"angle" : 270.0,
					"border" : 2,
					"bordercolor" : [ 0.56078431372549, 0.623529411764706, 0.631372549019608, 1.0 ],
					"grad1" : [ 0.2, 0.2, 0.2, 0.8 ],
					"grad2" : [ 0.2, 0.2, 0.2, 1.0 ],
					"id" : "obj-55",
					"maxclass" : "panel",
					"mode" : 1,
					"numinlets" : 1,
					"numoutlets" : 0,
					"patching_rect" : [ 31.0, 641.0, 52.5, 67.0 ],
					"presentation" : 1,
					"presentation_rect" : [ 3.0, 365.2265625, 292.0, 32.226547241210938 ],
					"proportion" : 0.5
				}

			}
, 			{
				"box" : 				{
					"angle" : 270.0,
					"border" : 2,
					"bordercolor" : [ 0.56078431372549, 0.623529411764706, 0.631372549019608, 1.0 ],
					"grad1" : [ 0.2, 0.2, 0.2, 0.8 ],
					"grad2" : [ 0.2, 0.2, 0.2, 1.0 ],
					"id" : "obj-10",
					"maxclass" : "panel",
					"mode" : 1,
					"numinlets" : 1,
					"numoutlets" : 0,
					"patching_rect" : [ 31.0, 466.0, 52.5, 67.0 ],
					"presentation" : 1,
					"presentation_rect" : [ 3.0, 238.0, 55.5, 67.0 ],
					"proportion" : 0.5
				}

			}
, 			{
				"box" : 				{
					"fontface" : 1,
					"fontsize" : 10.0,
					"id" : "obj-62",
					"maxclass" : "comment",
					"numinlets" : 1,
					"numoutlets" : 0,
					"patching_rect" : [ 93.0, 563.0, 76.0, 18.0 ],
					"presentation" : 1,
					"presentation_rect" : [ 3.0, 307.0, 57.0, 18.0 ],
					"text" : "BandPass",
					"textcolor" : [ 0.847058832645416, 0.847058832645416, 0.847058832645416, 1.0 ]
				}

			}
, 			{
				"box" : 				{
					"activefgdialcolor" : [ 0.847058823529412, 0.847058823529412, 0.847058823529412, 1.0 ],
					"activeneedlecolor" : [ 0.847058823529412, 0.847058823529412, 0.847058823529412, 1.0 ],
					"id" : "obj-12",
					"maxclass" : "live.dial",
					"numinlets" : 1,
					"numoutlets" : 2,
					"outlettype" : [ "", "float" ],
					"parameter_enable" : 1,
					"patching_rect" : [ 171.0, 563.0, 41.0, 48.0 ],
					"presentation" : 1,
					"presentation_rect" : [ 62.5, 311.0, 40.0, 48.0 ],
					"saved_attribute_attributes" : 					{
						"valueof" : 						{
							"parameter_longname" : "lowFreq",
							"parameter_mmax" : 300.0,
							"parameter_shortname" : "low",
							"parameter_type" : 0,
							"parameter_unitstyle" : 3,
							"parameter_linknames" : 1,
							"parameter_mmin" : 10.0
						}

					}
,
					"textcolor" : [ 0.847058823529412, 0.847058823529412, 0.847058823529412, 1.0 ],
					"varname" : "lowFreq"
				}

			}
, 			{
				"box" : 				{
					"activefgdialcolor" : [ 0.847058823529412, 0.847058823529412, 0.847058823529412, 1.0 ],
					"activeneedlecolor" : [ 0.847058823529412, 0.847058823529412, 0.847058823529412, 1.0 ],
					"id" : "obj-4",
					"maxclass" : "live.dial",
					"numinlets" : 1,
					"numoutlets" : 2,
					"outlettype" : [ "", "float" ],
					"parameter_enable" : 1,
					"patching_rect" : [ 214.0, 563.0, 41.0, 48.0 ],
					"presentation" : 1,
					"presentation_rect" : [ 108.0, 311.0, 41.0, 48.0 ],
					"saved_attribute_attributes" : 					{
						"valueof" : 						{
							"parameter_longname" : "highFreq",
							"parameter_mmax" : 500.0,
							"parameter_shortname" : "high",
							"parameter_type" : 0,
							"parameter_unitstyle" : 3,
							"parameter_linknames" : 1,
							"parameter_mmin" : 40.0
						}

					}
,
					"textcolor" : [ 0.847058823529412, 0.847058823529412, 0.847058823529412, 1.0 ],
					"varname" : "highFreq"
				}

			}
, 			{
				"box" : 				{
					"fontface" : 1,
					"fontsize" : 14.0,
					"id" : "obj-7",
					"maxclass" : "comment",
					"numinlets" : 1,
					"numoutlets" : 0,
					"patching_rect" : [ 93.0, 22.0, 188.0, 22.0 ],
					"presentation" : 1,
					"presentation_rect" : [ 8.0, 7.0, 188.0, 22.0 ],
					"text" : "Haptics Noise",
					"textcolor" : [ 0.317647010087967, 0.65490198135376, 0.97647100687027, 1.0 ]
				}

			}
, 			{
				"box" : 				{
					"angle" : 270.0,
					"border" : 2,
					"bordercolor" : [ 0.56078431372549, 0.623529411764706, 0.631372549019608, 1.0 ],
					"grad1" : [ 0.2, 0.2, 0.2, 0.8 ],
					"grad2" : [ 0.2, 0.2, 0.2, 1.0 ],
					"id" : "obj-40",
					"maxclass" : "panel",
					"mode" : 1,
					"numinlets" : 1,
					"numoutlets" : 0,
					"patching_rect" : [ 31.0, 342.0, 52.5, 67.0 ],
					"proportion" : 0.5
				}

			}
, 			{
				"box" : 				{
					"angle" : 270.0,
					"border" : 2,
					"bordercolor" : [ 0.56078431372549, 0.623529411764706, 0.631372549019608, 1.0 ],
					"grad1" : [ 0.2, 0.2, 0.2, 0.8 ],
					"grad2" : [ 0.2, 0.2, 0.2, 1.0 ],
					"id" : "obj-42",
					"maxclass" : "panel",
					"mode" : 1,
					"numinlets" : 1,
					"numoutlets" : 0,
					"patching_rect" : [ 30.5, 99.0, 52.5, 67.0 ],
					"proportion" : 0.5
				}

			}
, 			{
				"box" : 				{
					"angle" : 270.0,
					"border" : 2,
					"bordercolor" : [ 0.56078431372549, 0.623529411764706, 0.631372549019608, 1.0 ],
					"grad1" : [ 0.2, 0.2, 0.2, 0.8 ],
					"grad2" : [ 0.2, 0.2, 0.2, 1.0 ],
					"id" : "obj-50",
					"maxclass" : "panel",
					"mode" : 1,
					"numinlets" : 1,
					"numoutlets" : 0,
					"patching_rect" : [ 30.5, 22.0, 52.5, 67.0 ],
					"presentation" : 1,
					"presentation_rect" : [ 3.0, 1.886725425720215, 292.0, 32.226547241210938 ],
					"proportion" : 0.5
				}

			}
, 			{
				"box" : 				{
					"angle" : 270.0,
					"border" : 2,
					"bordercolor" : [ 0.56078431372549, 0.623529411764706, 0.631372549019608, 1.0 ],
					"grad1" : [ 0.2, 0.2, 0.2, 0.8 ],
					"grad2" : [ 0.2, 0.2, 0.2, 1.0 ],
					"id" : "obj-61",
					"maxclass" : "panel",
					"mode" : 1,
					"numinlets" : 1,
					"numoutlets" : 0,
					"patching_rect" : [ 31.0, 560.0, 52.5, 67.0 ],
					"presentation" : 1,
					"presentation_rect" : [ 3.0, 307.0, 292.0, 56.226547241210938 ],
					"proportion" : 0.5
				}

			}
, 			{
				"box" : 				{
					"angle" : 270.0,
					"border" : 2,
					"bordercolor" : [ 0.56078431372549, 0.623529411764706, 0.631372549019608, 1.0 ],
					"grad1" : [ 0.2, 0.2, 0.2, 0.8 ],
					"grad2" : [ 0.2, 0.2, 0.2, 1.0 ],
					"id" : "obj-22",
					"maxclass" : "panel",
					"mode" : 1,
					"numinlets" : 1,
					"numoutlets" : 0,
					"patching_rect" : [ 85.0, 99.0, 249.5, 67.0 ],
					"proportion" : 0.5
				}

			}
, 			{
				"box" : 				{
					"angle" : 270.0,
					"border" : 2,
					"bordercolor" : [ 0.56078431372549, 0.623529411764706, 0.631372549019608, 1.0 ],
					"grad1" : [ 0.2, 0.2, 0.2, 0.8 ],
					"grad2" : [ 0.2, 0.2, 0.2, 1.0 ],
					"hidden" : 1,
					"id" : "obj-29",
					"maxclass" : "panel",
					"mode" : 1,
					"numinlets" : 1,
					"numoutlets" : 0,
					"patching_rect" : [ 85.0, 168.0, 249.5, 67.0 ],
					"proportion" : 0.5
				}

			}
 ],
		"lines" : [ 			{
				"patchline" : 				{
					"destination" : [ "obj-20", 0 ],
					"source" : [ "obj-1", 0 ]
				}

			}
, 			{
				"patchline" : 				{
					"destination" : [ "obj-21", 0 ],
					"source" : [ "obj-13", 3 ]
				}

			}
, 			{
				"patchline" : 				{
					"destination" : [ "obj-15", 0 ],
					"source" : [ "obj-14", 0 ]
				}

			}
, 			{
				"patchline" : 				{
					"destination" : [ "obj-21", 0 ],
					"midpoints" : [ 552.0, 550.0, 552.0, 550.0 ],
					"source" : [ "obj-15", 0 ]
				}

			}
, 			{
				"patchline" : 				{
					"destination" : [ "obj-32", 0 ],
					"source" : [ "obj-2", 0 ]
				}

			}
, 			{
				"patchline" : 				{
					"destination" : [ "obj-2", 0 ],
					"source" : [ "obj-20", 0 ]
				}

			}
, 			{
				"patchline" : 				{
					"destination" : [ "obj-13", 0 ],
					"source" : [ "obj-21", 0 ]
				}

			}
, 			{
				"patchline" : 				{
					"destination" : [ "obj-1", 0 ],
					"source" : [ "obj-24", 0 ]
				}

			}
, 			{
				"patchline" : 				{
					"destination" : [ "obj-1", 0 ],
					"source" : [ "obj-26", 0 ]
				}

			}
, 			{
				"patchline" : 				{
					"destination" : [ "obj-6", 0 ],
					"source" : [ "obj-32", 0 ]
				}

			}
, 			{
				"patchline" : 				{
					"destination" : [ "obj-26", 0 ],
					"source" : [ "obj-34", 0 ]
				}

			}
, 			{
				"patchline" : 				{
					"destination" : [ "obj-38", 0 ],
					"source" : [ "obj-35", 0 ]
				}

			}
, 			{
				"patchline" : 				{
					"destination" : [ "obj-6", 0 ],
					"source" : [ "obj-38", 0 ]
				}

			}
, 			{
				"patchline" : 				{
					"destination" : [ "obj-15", 0 ],
					"source" : [ "obj-6", 1 ]
				}

			}
, 			{
				"patchline" : 				{
					"destination" : [ "obj-14", 0 ],
					"source" : [ "obj-9", 0 ]
				}

			}
 ],
		"parameters" : 		{
			"obj-12" : [ "lowFreq", "low", 0 ],
			"obj-4" : [ "highFreq", "high", 0 ],
			"obj-34" : [ "env_1[1]", "live.text", 0 ],
			"obj-16" : [ "gain", "gain", 0 ],
			"parameterbanks" : 			{

			}

		}
,
		"dependency_cache" : [ 			{
				"name" : "preset-noise.json",
				"bootpath" : "~/Documents/01_projects/HSoundPlane/code/max/HSoundplane/HS_Hap_V001",
				"patcherrelativepath" : ".",
				"type" : "JSON",
				"implicit" : 1
			}
 ],
		"autosave" : 0,
		"styles" : [ 			{
				"name" : "AudioStatus_Menu",
				"default" : 				{
					"bgfillcolor" : 					{
						"type" : "color",
						"color" : [ 0.294118, 0.313726, 0.337255, 1 ],
						"color1" : [ 0.454902, 0.462745, 0.482353, 0.0 ],
						"color2" : [ 0.290196, 0.309804, 0.301961, 1.0 ],
						"angle" : 270.0,
						"proportion" : 0.39,
						"autogradient" : 0
					}

				}
,
				"parentstyle" : "",
				"multi" : 0
			}
, 			{
				"name" : "STYLE1",
				"parentstyle" : "",
				"multi" : 0
			}
, 			{
				"name" : "jpatcher001",
				"parentstyle" : "",
				"multi" : 0
			}
, 			{
				"name" : "tap",
				"default" : 				{
					"fontname" : [ "Lato Light" ]
				}
,
				"parentstyle" : "",
				"multi" : 0
			}
 ],
		"bgcolor" : [ 0.074509803921569, 0.074509803921569, 0.074509803921569, 0.0 ]
	}

}
