{
	"patcher" : 	{
		"fileversion" : 1,
		"appversion" : 		{
			"major" : 7,
			"minor" : 1,
			"revision" : 0,
			"architecture" : "x86",
			"modernui" : 1
		}
,
		"rect" : [ 42.0, 116.0, 1438.0, 727.0 ],
		"bglocked" : 0,
		"openinpresentation" : 0,
		"default_fontsize" : 12.0,
		"default_fontface" : 0,
		"default_fontname" : "Arial",
		"gridonopen" : 1,
		"gridsize" : [ 15.0, 15.0 ],
		"gridsnaponopen" : 1,
		"objectsnaponopen" : 1,
		"statusbarvisible" : 2,
		"toolbarvisible" : 1,
		"lefttoolbarpinned" : 0,
		"toptoolbarpinned" : 0,
		"righttoolbarpinned" : 0,
		"bottomtoolbarpinned" : 0,
		"toolbars_unpinned_last_save" : 0,
		"tallnewobj" : 0,
		"boxanimatetime" : 200,
		"enablehscroll" : 1,
		"enablevscroll" : 1,
		"devicewidth" : 0.0,
		"description" : "",
		"digest" : "",
		"tags" : "",
		"style" : "",
		"subpatcher_template" : "",
		"boxes" : [ 			{
				"box" : 				{
					"bgmode" : 0,
					"border" : 0,
					"clickthrough" : 0,
					"enablehscroll" : 0,
					"enablevscroll" : 0,
					"id" : "obj-1",
					"lockeddragscroll" : 0,
					"maxclass" : "bpatcher",
					"name" : "HSoundPlane_serial.maxpat",
					"numinlets" : 2,
					"numoutlets" : 1,
					"offset" : [ 0.0, 0.0 ],
					"outlettype" : [ "" ],
					"patching_rect" : [ 391.0, 560.0, 318.0, 25.200012 ],
					"viewvisibility" : 1
				}

			}
, 			{
				"box" : 				{
					"id" : "obj-62",
					"maxclass" : "message",
					"numinlets" : 2,
					"numoutlets" : 1,
					"outlettype" : [ "" ],
					"patching_rect" : [ 1049.0, 505.0, 50.0, 22.0 ],
					"style" : "",
					"text" : "110 0"
				}

			}
, 			{
				"box" : 				{
					"id" : "obj-60",
					"maxclass" : "message",
					"numinlets" : 2,
					"numoutlets" : 1,
					"outlettype" : [ "" ],
					"patching_rect" : [ 635.0, 594.0, 50.0, 22.0 ],
					"style" : "",
					"text" : "255 2"
				}

			}
, 			{
				"box" : 				{
					"bgmode" : 0,
					"border" : 0,
					"clickthrough" : 0,
					"enablehscroll" : 0,
					"enablevscroll" : 0,
					"id" : "obj-21",
					"lockeddragscroll" : 0,
					"maxclass" : "bpatcher",
					"name" : "HSoundPlane_serial.maxpat",
					"numinlets" : 0,
					"numoutlets" : 0,
					"offset" : [ 0.0, 0.0 ],
					"patching_rect" : [ 846.0, 550.200012, 322.0, 22.0 ],
					"presentation" : 1,
					"presentation_rect" : [ 501.0, 24.200012, 322.0, 22.0 ],
					"viewvisibility" : 1
				}

			}
, 			{
				"box" : 				{
					"id" : "obj-12",
					"maxclass" : "message",
					"numinlets" : 2,
					"numoutlets" : 1,
					"outlettype" : [ "" ],
					"patching_rect" : [ 1312.0, 317.0, 37.0, 22.0 ],
					"style" : "",
					"text" : "raw0"
				}

			}
, 			{
				"box" : 				{
					"borderstyle" : 3,
					"fontface" : 0,
					"iconbackground" : 4,
					"iconsize" : 24.0,
					"id" : "obj-51",
					"maxclass" : "icst.button",
					"numinlets" : 1,
					"numoutlets" : 2,
					"offdisplaytext" : "",
					"on_borderstyle" : 2,
					"ondisplaytext" : "",
					"outlettype" : [ "", "" ],
					"outmess" : "col7",
					"parameter_enable" : 0,
					"patching_rect" : [ 423.0, 266.0, 24.0, 24.0 ],
					"usedisplaytext" : 1,
					"useoutmess" : 1
				}

			}
, 			{
				"box" : 				{
					"borderstyle" : 3,
					"fontface" : 0,
					"iconbackground" : 4,
					"iconsize" : 24.0,
					"id" : "obj-52",
					"maxclass" : "icst.button",
					"numinlets" : 1,
					"numoutlets" : 2,
					"offdisplaytext" : "",
					"on_borderstyle" : 2,
					"ondisplaytext" : "",
					"outlettype" : [ "", "" ],
					"outmess" : "col6",
					"parameter_enable" : 0,
					"patching_rect" : [ 391.0, 266.0, 24.0, 24.0 ],
					"usedisplaytext" : 1,
					"useoutmess" : 1
				}

			}
, 			{
				"box" : 				{
					"borderstyle" : 3,
					"fontface" : 0,
					"iconbackground" : 4,
					"iconsize" : 24.0,
					"id" : "obj-53",
					"maxclass" : "icst.button",
					"numinlets" : 1,
					"numoutlets" : 2,
					"offdisplaytext" : "",
					"on_borderstyle" : 2,
					"ondisplaytext" : "",
					"outlettype" : [ "", "" ],
					"outmess" : "col5",
					"parameter_enable" : 0,
					"patching_rect" : [ 359.0, 266.0, 24.0, 24.0 ],
					"usedisplaytext" : 1,
					"useoutmess" : 1
				}

			}
, 			{
				"box" : 				{
					"borderstyle" : 3,
					"fontface" : 0,
					"iconbackground" : 4,
					"iconsize" : 24.0,
					"id" : "obj-54",
					"maxclass" : "icst.button",
					"numinlets" : 1,
					"numoutlets" : 2,
					"offdisplaytext" : "",
					"on_borderstyle" : 2,
					"ondisplaytext" : "",
					"outlettype" : [ "", "" ],
					"outmess" : "col4",
					"parameter_enable" : 0,
					"patching_rect" : [ 327.0, 266.0, 24.0, 24.0 ],
					"usedisplaytext" : 1,
					"useoutmess" : 1
				}

			}
, 			{
				"box" : 				{
					"borderstyle" : 3,
					"fontface" : 0,
					"iconbackground" : 4,
					"iconsize" : 24.0,
					"id" : "obj-55",
					"maxclass" : "icst.button",
					"numinlets" : 1,
					"numoutlets" : 2,
					"offdisplaytext" : "",
					"on_borderstyle" : 2,
					"ondisplaytext" : "",
					"outlettype" : [ "", "" ],
					"outmess" : "col3",
					"parameter_enable" : 0,
					"patching_rect" : [ 295.0, 266.0, 24.0, 24.0 ],
					"usedisplaytext" : 1,
					"useoutmess" : 1
				}

			}
, 			{
				"box" : 				{
					"borderstyle" : 3,
					"fontface" : 0,
					"iconbackground" : 4,
					"iconsize" : 24.0,
					"id" : "obj-56",
					"maxclass" : "icst.button",
					"numinlets" : 1,
					"numoutlets" : 2,
					"offdisplaytext" : "",
					"on_borderstyle" : 2,
					"ondisplaytext" : "",
					"outlettype" : [ "", "" ],
					"outmess" : "col2",
					"parameter_enable" : 0,
					"patching_rect" : [ 263.0, 266.0, 24.0, 24.0 ],
					"usedisplaytext" : 1,
					"useoutmess" : 1
				}

			}
, 			{
				"box" : 				{
					"borderstyle" : 3,
					"fontface" : 0,
					"iconbackground" : 4,
					"iconsize" : 24.0,
					"id" : "obj-57",
					"maxclass" : "icst.button",
					"numinlets" : 1,
					"numoutlets" : 2,
					"offdisplaytext" : "",
					"on_borderstyle" : 2,
					"ondisplaytext" : "",
					"outlettype" : [ "", "" ],
					"outmess" : "col1",
					"parameter_enable" : 0,
					"patching_rect" : [ 231.0, 266.0, 24.0, 24.0 ],
					"usedisplaytext" : 1,
					"useoutmess" : 1
				}

			}
, 			{
				"box" : 				{
					"borderstyle" : 3,
					"fontface" : 0,
					"iconbackground" : 4,
					"iconsize" : 24.0,
					"id" : "obj-58",
					"maxclass" : "icst.button",
					"numinlets" : 1,
					"numoutlets" : 2,
					"offdisplaytext" : "",
					"on_borderstyle" : 2,
					"ondisplaytext" : "",
					"outlettype" : [ "", "" ],
					"outmess" : "col0",
					"parameter_enable" : 0,
					"patching_rect" : [ 199.0, 266.0, 24.0, 24.0 ],
					"usedisplaytext" : 1,
					"useoutmess" : 1
				}

			}
, 			{
				"box" : 				{
					"borderstyle" : 3,
					"fontface" : 0,
					"iconbackground" : 4,
					"iconsize" : 24.0,
					"id" : "obj-43",
					"maxclass" : "icst.button",
					"numinlets" : 1,
					"numoutlets" : 2,
					"offdisplaytext" : "",
					"on_borderstyle" : 2,
					"ondisplaytext" : "",
					"outlettype" : [ "", "" ],
					"outmess" : "col15",
					"parameter_enable" : 0,
					"patching_rect" : [ 680.0, 266.0, 24.0, 24.0 ],
					"usedisplaytext" : 1,
					"useoutmess" : 1
				}

			}
, 			{
				"box" : 				{
					"borderstyle" : 3,
					"fontface" : 0,
					"iconbackground" : 4,
					"iconsize" : 24.0,
					"id" : "obj-44",
					"maxclass" : "icst.button",
					"numinlets" : 1,
					"numoutlets" : 2,
					"offdisplaytext" : "",
					"on_borderstyle" : 2,
					"ondisplaytext" : "",
					"outlettype" : [ "", "" ],
					"outmess" : "col14",
					"parameter_enable" : 0,
					"patching_rect" : [ 648.0, 266.0, 24.0, 24.0 ],
					"usedisplaytext" : 1,
					"useoutmess" : 1
				}

			}
, 			{
				"box" : 				{
					"borderstyle" : 3,
					"fontface" : 0,
					"iconbackground" : 4,
					"iconsize" : 24.0,
					"id" : "obj-45",
					"maxclass" : "icst.button",
					"numinlets" : 1,
					"numoutlets" : 2,
					"offdisplaytext" : "",
					"on_borderstyle" : 2,
					"ondisplaytext" : "",
					"outlettype" : [ "", "" ],
					"outmess" : "col13",
					"parameter_enable" : 0,
					"patching_rect" : [ 616.0, 266.0, 24.0, 24.0 ],
					"usedisplaytext" : 1,
					"useoutmess" : 1
				}

			}
, 			{
				"box" : 				{
					"borderstyle" : 3,
					"fontface" : 0,
					"iconbackground" : 4,
					"iconsize" : 24.0,
					"id" : "obj-46",
					"maxclass" : "icst.button",
					"numinlets" : 1,
					"numoutlets" : 2,
					"offdisplaytext" : "",
					"on_borderstyle" : 2,
					"ondisplaytext" : "",
					"outlettype" : [ "", "" ],
					"outmess" : "col12",
					"parameter_enable" : 0,
					"patching_rect" : [ 584.0, 266.0, 24.0, 24.0 ],
					"usedisplaytext" : 1,
					"useoutmess" : 1
				}

			}
, 			{
				"box" : 				{
					"borderstyle" : 3,
					"fontface" : 0,
					"iconbackground" : 4,
					"iconsize" : 24.0,
					"id" : "obj-47",
					"maxclass" : "icst.button",
					"numinlets" : 1,
					"numoutlets" : 2,
					"offdisplaytext" : "",
					"on_borderstyle" : 2,
					"ondisplaytext" : "",
					"outlettype" : [ "", "" ],
					"outmess" : "col11",
					"parameter_enable" : 0,
					"patching_rect" : [ 552.0, 266.0, 24.0, 24.0 ],
					"usedisplaytext" : 1,
					"useoutmess" : 1
				}

			}
, 			{
				"box" : 				{
					"borderstyle" : 3,
					"fontface" : 0,
					"iconbackground" : 4,
					"iconsize" : 24.0,
					"id" : "obj-48",
					"maxclass" : "icst.button",
					"numinlets" : 1,
					"numoutlets" : 2,
					"offdisplaytext" : "",
					"on_borderstyle" : 2,
					"ondisplaytext" : "",
					"outlettype" : [ "", "" ],
					"outmess" : "col10",
					"parameter_enable" : 0,
					"patching_rect" : [ 520.0, 266.0, 24.0, 24.0 ],
					"usedisplaytext" : 1,
					"useoutmess" : 1
				}

			}
, 			{
				"box" : 				{
					"borderstyle" : 3,
					"fontface" : 0,
					"iconbackground" : 4,
					"iconsize" : 24.0,
					"id" : "obj-49",
					"maxclass" : "icst.button",
					"numinlets" : 1,
					"numoutlets" : 2,
					"offdisplaytext" : "",
					"on_borderstyle" : 2,
					"ondisplaytext" : "",
					"outlettype" : [ "", "" ],
					"outmess" : "col9",
					"parameter_enable" : 0,
					"patching_rect" : [ 488.0, 266.0, 24.0, 24.0 ],
					"usedisplaytext" : 1,
					"useoutmess" : 1
				}

			}
, 			{
				"box" : 				{
					"borderstyle" : 3,
					"fontface" : 0,
					"iconbackground" : 4,
					"iconsize" : 24.0,
					"id" : "obj-50",
					"maxclass" : "icst.button",
					"numinlets" : 1,
					"numoutlets" : 2,
					"offdisplaytext" : "",
					"on_borderstyle" : 2,
					"ondisplaytext" : "",
					"outlettype" : [ "", "" ],
					"outmess" : "col8",
					"parameter_enable" : 0,
					"patching_rect" : [ 456.0, 266.0, 24.0, 24.0 ],
					"usedisplaytext" : 1,
					"useoutmess" : 1
				}

			}
, 			{
				"box" : 				{
					"borderstyle" : 3,
					"fontface" : 0,
					"iconbackground" : 4,
					"iconsize" : 24.0,
					"id" : "obj-35",
					"maxclass" : "icst.button",
					"numinlets" : 1,
					"numoutlets" : 2,
					"offdisplaytext" : "",
					"on_borderstyle" : 2,
					"ondisplaytext" : "",
					"outlettype" : [ "", "" ],
					"outmess" : "col23",
					"parameter_enable" : 0,
					"patching_rect" : [ 937.0, 266.0, 24.0, 24.0 ],
					"usedisplaytext" : 1,
					"useoutmess" : 1
				}

			}
, 			{
				"box" : 				{
					"borderstyle" : 3,
					"fontface" : 0,
					"iconbackground" : 4,
					"iconsize" : 24.0,
					"id" : "obj-36",
					"maxclass" : "icst.button",
					"numinlets" : 1,
					"numoutlets" : 2,
					"offdisplaytext" : "",
					"on_borderstyle" : 2,
					"ondisplaytext" : "",
					"outlettype" : [ "", "" ],
					"outmess" : "col22",
					"parameter_enable" : 0,
					"patching_rect" : [ 905.0, 266.0, 24.0, 24.0 ],
					"usedisplaytext" : 1,
					"useoutmess" : 1
				}

			}
, 			{
				"box" : 				{
					"borderstyle" : 3,
					"fontface" : 0,
					"iconbackground" : 4,
					"iconsize" : 24.0,
					"id" : "obj-37",
					"maxclass" : "icst.button",
					"numinlets" : 1,
					"numoutlets" : 2,
					"offdisplaytext" : "",
					"on_borderstyle" : 2,
					"ondisplaytext" : "",
					"outlettype" : [ "", "" ],
					"outmess" : "col21",
					"parameter_enable" : 0,
					"patching_rect" : [ 873.0, 266.0, 24.0, 24.0 ],
					"usedisplaytext" : 1,
					"useoutmess" : 1
				}

			}
, 			{
				"box" : 				{
					"borderstyle" : 3,
					"fontface" : 0,
					"iconbackground" : 4,
					"iconsize" : 24.0,
					"id" : "obj-38",
					"maxclass" : "icst.button",
					"numinlets" : 1,
					"numoutlets" : 2,
					"offdisplaytext" : "",
					"on_borderstyle" : 2,
					"ondisplaytext" : "",
					"outlettype" : [ "", "" ],
					"outmess" : "col20",
					"parameter_enable" : 0,
					"patching_rect" : [ 841.0, 266.0, 24.0, 24.0 ],
					"usedisplaytext" : 1,
					"useoutmess" : 1
				}

			}
, 			{
				"box" : 				{
					"borderstyle" : 3,
					"fontface" : 0,
					"iconbackground" : 4,
					"iconsize" : 24.0,
					"id" : "obj-39",
					"maxclass" : "icst.button",
					"numinlets" : 1,
					"numoutlets" : 2,
					"offdisplaytext" : "",
					"on_borderstyle" : 2,
					"ondisplaytext" : "",
					"outlettype" : [ "", "" ],
					"outmess" : "col19",
					"parameter_enable" : 0,
					"patching_rect" : [ 809.0, 266.0, 24.0, 24.0 ],
					"usedisplaytext" : 1,
					"useoutmess" : 1
				}

			}
, 			{
				"box" : 				{
					"borderstyle" : 3,
					"fontface" : 0,
					"iconbackground" : 4,
					"iconsize" : 24.0,
					"id" : "obj-40",
					"maxclass" : "icst.button",
					"numinlets" : 1,
					"numoutlets" : 2,
					"offdisplaytext" : "",
					"on_borderstyle" : 2,
					"ondisplaytext" : "",
					"outlettype" : [ "", "" ],
					"outmess" : "col18",
					"parameter_enable" : 0,
					"patching_rect" : [ 777.0, 266.0, 24.0, 24.0 ],
					"usedisplaytext" : 1,
					"useoutmess" : 1
				}

			}
, 			{
				"box" : 				{
					"borderstyle" : 3,
					"fontface" : 0,
					"iconbackground" : 4,
					"iconsize" : 24.0,
					"id" : "obj-41",
					"maxclass" : "icst.button",
					"numinlets" : 1,
					"numoutlets" : 2,
					"offdisplaytext" : "",
					"on_borderstyle" : 2,
					"ondisplaytext" : "",
					"outlettype" : [ "", "" ],
					"outmess" : "col17",
					"parameter_enable" : 0,
					"patching_rect" : [ 745.0, 266.0, 24.0, 24.0 ],
					"usedisplaytext" : 1,
					"useoutmess" : 1
				}

			}
, 			{
				"box" : 				{
					"borderstyle" : 3,
					"fontface" : 0,
					"iconbackground" : 4,
					"iconsize" : 24.0,
					"id" : "obj-42",
					"maxclass" : "icst.button",
					"numinlets" : 1,
					"numoutlets" : 2,
					"offdisplaytext" : "",
					"on_borderstyle" : 2,
					"ondisplaytext" : "",
					"outlettype" : [ "", "" ],
					"outmess" : "col16",
					"parameter_enable" : 0,
					"patching_rect" : [ 713.0, 266.0, 24.0, 24.0 ],
					"usedisplaytext" : 1,
					"useoutmess" : 1
				}

			}
, 			{
				"box" : 				{
					"borderstyle" : 3,
					"fontface" : 0,
					"iconbackground" : 4,
					"iconsize" : 24.0,
					"id" : "obj-34",
					"maxclass" : "icst.button",
					"numinlets" : 1,
					"numoutlets" : 2,
					"offdisplaytext" : "",
					"on_borderstyle" : 2,
					"ondisplaytext" : "",
					"outlettype" : [ "", "" ],
					"outmess" : "col31",
					"parameter_enable" : 0,
					"patching_rect" : [ 1194.0, 266.0, 24.0, 24.0 ],
					"usedisplaytext" : 1,
					"useoutmess" : 1
				}

			}
, 			{
				"box" : 				{
					"borderstyle" : 3,
					"fontface" : 0,
					"iconbackground" : 4,
					"iconsize" : 24.0,
					"id" : "obj-33",
					"maxclass" : "icst.button",
					"numinlets" : 1,
					"numoutlets" : 2,
					"offdisplaytext" : "",
					"on_borderstyle" : 2,
					"ondisplaytext" : "",
					"outlettype" : [ "", "" ],
					"outmess" : "col30",
					"parameter_enable" : 0,
					"patching_rect" : [ 1162.0, 266.0, 24.0, 24.0 ],
					"usedisplaytext" : 1,
					"useoutmess" : 1
				}

			}
, 			{
				"box" : 				{
					"borderstyle" : 3,
					"fontface" : 0,
					"iconbackground" : 4,
					"iconsize" : 24.0,
					"id" : "obj-31",
					"maxclass" : "icst.button",
					"numinlets" : 1,
					"numoutlets" : 2,
					"offdisplaytext" : "",
					"on_borderstyle" : 2,
					"ondisplaytext" : "",
					"outlettype" : [ "", "" ],
					"outmess" : "col29",
					"parameter_enable" : 0,
					"patching_rect" : [ 1130.0, 266.0, 24.0, 24.0 ],
					"usedisplaytext" : 1,
					"useoutmess" : 1
				}

			}
, 			{
				"box" : 				{
					"borderstyle" : 3,
					"fontface" : 0,
					"iconbackground" : 4,
					"iconsize" : 24.0,
					"id" : "obj-30",
					"maxclass" : "icst.button",
					"numinlets" : 1,
					"numoutlets" : 2,
					"offdisplaytext" : "",
					"on_borderstyle" : 2,
					"ondisplaytext" : "",
					"outlettype" : [ "", "" ],
					"outmess" : "col28",
					"parameter_enable" : 0,
					"patching_rect" : [ 1098.0, 266.0, 24.0, 24.0 ],
					"usedisplaytext" : 1,
					"useoutmess" : 1
				}

			}
, 			{
				"box" : 				{
					"borderstyle" : 3,
					"fontface" : 0,
					"iconbackground" : 4,
					"iconsize" : 24.0,
					"id" : "obj-29",
					"maxclass" : "icst.button",
					"numinlets" : 1,
					"numoutlets" : 2,
					"offdisplaytext" : "",
					"on_borderstyle" : 2,
					"ondisplaytext" : "",
					"outlettype" : [ "", "" ],
					"outmess" : "col27",
					"parameter_enable" : 0,
					"patching_rect" : [ 1066.0, 266.0, 24.0, 24.0 ],
					"usedisplaytext" : 1,
					"useoutmess" : 1
				}

			}
, 			{
				"box" : 				{
					"borderstyle" : 3,
					"fontface" : 0,
					"iconbackground" : 4,
					"iconsize" : 24.0,
					"id" : "obj-28",
					"maxclass" : "icst.button",
					"numinlets" : 1,
					"numoutlets" : 2,
					"offdisplaytext" : "",
					"on_borderstyle" : 2,
					"ondisplaytext" : "",
					"outlettype" : [ "", "" ],
					"outmess" : "col26",
					"parameter_enable" : 0,
					"patching_rect" : [ 1034.0, 266.0, 24.0, 24.0 ],
					"usedisplaytext" : 1,
					"useoutmess" : 1
				}

			}
, 			{
				"box" : 				{
					"borderstyle" : 3,
					"fontface" : 0,
					"iconbackground" : 4,
					"iconsize" : 24.0,
					"id" : "obj-23",
					"maxclass" : "icst.button",
					"numinlets" : 1,
					"numoutlets" : 2,
					"offdisplaytext" : "",
					"on_borderstyle" : 2,
					"ondisplaytext" : "",
					"outlettype" : [ "", "" ],
					"outmess" : "col25",
					"parameter_enable" : 0,
					"patching_rect" : [ 1002.0, 266.0, 24.0, 24.0 ],
					"usedisplaytext" : 1,
					"useoutmess" : 1
				}

			}
, 			{
				"box" : 				{
					"borderstyle" : 3,
					"fontface" : 0,
					"iconbackground" : 4,
					"iconsize" : 24.0,
					"id" : "obj-18",
					"maxclass" : "icst.button",
					"numinlets" : 1,
					"numoutlets" : 2,
					"offdisplaytext" : "",
					"on_borderstyle" : 2,
					"ondisplaytext" : "",
					"outlettype" : [ "", "" ],
					"outmess" : "col24",
					"parameter_enable" : 0,
					"patching_rect" : [ 970.0, 266.0, 24.0, 24.0 ],
					"usedisplaytext" : 1,
					"useoutmess" : 1
				}

			}
, 			{
				"box" : 				{
					"id" : "obj-27",
					"linecount" : 3,
					"maxclass" : "comment",
					"numinlets" : 1,
					"numoutlets" : 0,
					"patching_rect" : [ 1307.0, 448.076233, 80.0, 47.0 ],
					"style" : "",
					"text" : "\\\n }  message\n/"
				}

			}
, 			{
				"box" : 				{
					"id" : "obj-17",
					"maxclass" : "comment",
					"numinlets" : 1,
					"numoutlets" : 0,
					"patching_rect" : [ 1251.0, 473.0, 59.0, 20.0 ],
					"style" : "",
					"text" : "complete"
				}

			}
, 			{
				"box" : 				{
					"id" : "obj-15",
					"maxclass" : "comment",
					"numinlets" : 1,
					"numoutlets" : 0,
					"patching_rect" : [ 1251.0, 450.076233, 39.0, 20.0 ],
					"style" : "",
					"text" : "slave"
				}

			}
, 			{
				"box" : 				{
					"fontname" : "Arial",
					"fontsize" : 18.0,
					"id" : "obj-32",
					"maxclass" : "comment",
					"numinlets" : 1,
					"numoutlets" : 0,
					"patching_rect" : [ 1251.0, 115.5, 67.0, 27.0 ],
					"style" : "",
					"text" : "signals",
					"textcolor" : [ 1.0, 0.0, 0.0, 1.0 ],
					"textjustification" : 2
				}

			}
, 			{
				"box" : 				{
					"hidden" : 1,
					"id" : "obj-24",
					"maxclass" : "newobj",
					"numinlets" : 1,
					"numoutlets" : 2,
					"outlettype" : [ "bang", "" ],
					"patching_rect" : [ 967.0, 472.0, 30.0, 22.0 ],
					"style" : "",
					"text" : "t b l"
				}

			}
, 			{
				"box" : 				{
					"fontname" : "Arial",
					"fontsize" : 18.0,
					"id" : "obj-3",
					"maxclass" : "comment",
					"numinlets" : 1,
					"numoutlets" : 0,
					"patching_rect" : [ 1251.0, 355.5, 50.0, 27.0 ],
					"style" : "",
					"text" : "pads",
					"textcolor" : [ 1.0, 0.0, 0.0, 1.0 ],
					"textjustification" : 2
				}

			}
, 			{
				"box" : 				{
					"id" : "obj-14",
					"maxclass" : "message",
					"numinlets" : 2,
					"numoutlets" : 1,
					"outlettype" : [ "" ],
					"patching_rect" : [ 179.5, 488.076233, 255.0, 22.0 ],
					"style" : "",
					"text" : "255 1"
				}

			}
, 			{
				"box" : 				{
					"args" : [ 1 ],
					"bgmode" : 0,
					"border" : 0,
					"clickthrough" : 0,
					"enablehscroll" : 0,
					"enablevscroll" : 0,
					"id" : "obj-10",
					"lockeddragscroll" : 0,
					"maxclass" : "bpatcher",
					"name" : "Touch_checkbox.maxpat",
					"numinlets" : 1,
					"numoutlets" : 1,
					"offset" : [ 0.0, 0.0 ],
					"outlettype" : [ "" ],
					"patching_rect" : [ 196.0, 293.0, 256.0, 152.0 ],
					"viewvisibility" : 1
				}

			}
, 			{
				"box" : 				{
					"args" : [ 2 ],
					"bgmode" : 0,
					"border" : 0,
					"clickthrough" : 0,
					"enablehscroll" : 0,
					"enablevscroll" : 0,
					"id" : "obj-11",
					"lockeddragscroll" : 0,
					"maxclass" : "bpatcher",
					"name" : "Touch_checkbox.maxpat",
					"numinlets" : 1,
					"numoutlets" : 1,
					"offset" : [ 0.0, 0.0 ],
					"outlettype" : [ "" ],
					"patching_rect" : [ 453.0, 293.0, 256.0, 152.0 ],
					"viewvisibility" : 1
				}

			}
, 			{
				"box" : 				{
					"args" : [ 3 ],
					"bgmode" : 0,
					"border" : 0,
					"clickthrough" : 0,
					"enablehscroll" : 0,
					"enablevscroll" : 0,
					"id" : "obj-4",
					"lockeddragscroll" : 0,
					"maxclass" : "bpatcher",
					"name" : "Touch_checkbox.maxpat",
					"numinlets" : 1,
					"numoutlets" : 1,
					"offset" : [ 0.0, 0.0 ],
					"outlettype" : [ "" ],
					"patching_rect" : [ 710.0, 293.0, 256.0, 152.0 ],
					"viewvisibility" : 1
				}

			}
, 			{
				"box" : 				{
					"args" : [ 4 ],
					"bgmode" : 0,
					"border" : 0,
					"clickthrough" : 0,
					"enablehscroll" : 0,
					"enablevscroll" : 0,
					"id" : "obj-205",
					"lockeddragscroll" : 0,
					"maxclass" : "bpatcher",
					"name" : "Touch_checkbox.maxpat",
					"numinlets" : 1,
					"numoutlets" : 1,
					"offset" : [ 0.0, 0.0 ],
					"outlettype" : [ "" ],
					"patching_rect" : [ 967.0, 293.0, 282.0, 152.0 ],
					"viewvisibility" : 1
				}

			}
, 			{
				"box" : 				{
					"fontname" : "Arial",
					"fontsize" : 18.0,
					"id" : "obj-204",
					"maxclass" : "comment",
					"numinlets" : 1,
					"numoutlets" : 0,
					"patching_rect" : [ 16.69989, 421.0, 105.0, 27.0 ],
					"style" : "",
					"text" : "piezo-driver",
					"textcolor" : [ 1.0, 0.0, 0.0, 1.0 ],
					"textjustification" : 2
				}

			}
, 			{
				"box" : 				{
					"fontname" : "Arial",
					"fontsize" : 18.0,
					"id" : "obj-203",
					"maxclass" : "comment",
					"numinlets" : 1,
					"numoutlets" : 0,
					"patching_rect" : [ 285.0, 215.0, 78.0, 27.0 ],
					"style" : "",
					"text" : "slave #1",
					"textcolor" : [ 1.0, 0.0, 0.0, 1.0 ],
					"textjustification" : 2
				}

			}
, 			{
				"box" : 				{
					"fontname" : "Arial",
					"fontsize" : 18.0,
					"id" : "obj-202",
					"maxclass" : "comment",
					"numinlets" : 1,
					"numoutlets" : 0,
					"patching_rect" : [ 542.0, 215.0, 78.0, 27.0 ],
					"style" : "",
					"text" : "slave #2",
					"textcolor" : [ 1.0, 0.0, 0.0, 1.0 ],
					"textjustification" : 2
				}

			}
, 			{
				"box" : 				{
					"fontname" : "Arial",
					"fontsize" : 18.0,
					"id" : "obj-201",
					"maxclass" : "comment",
					"numinlets" : 1,
					"numoutlets" : 0,
					"patching_rect" : [ 799.0, 215.0, 84.0, 27.0 ],
					"style" : "",
					"text" : "slave #3",
					"textcolor" : [ 1.0, 0.0, 0.0, 1.0 ],
					"textjustification" : 2
				}

			}
, 			{
				"box" : 				{
					"hidden" : 1,
					"id" : "obj-200",
					"maxclass" : "newobj",
					"numinlets" : 1,
					"numoutlets" : 1,
					"outlettype" : [ "bang" ],
					"patching_rect" : [ 51.69989, -52.266724, 60.0, 22.0 ],
					"style" : "",
					"text" : "loadbang"
				}

			}
, 			{
				"box" : 				{
					"hidden" : 1,
					"id" : "obj-199",
					"maxclass" : "message",
					"numinlets" : 2,
					"numoutlets" : 1,
					"outlettype" : [ "" ],
					"patching_rect" : [ 51.69989, -25.533386, 53.0, 22.0 ],
					"style" : "",
					"text" : "set 200."
				}

			}
, 			{
				"box" : 				{
					"args" : [ 8, 7, 6, 5, 4, 3, 2, 1 ],
					"bgmode" : 0,
					"border" : 0,
					"clickthrough" : 0,
					"enablehscroll" : 0,
					"enablevscroll" : 0,
					"id" : "obj-194",
					"lockeddragscroll" : 0,
					"maxclass" : "bpatcher",
					"name" : "Slave_channels.maxpat",
					"numinlets" : 3,
					"numoutlets" : 0,
					"offset" : [ 0.0, 0.0 ],
					"patching_rect" : [ 196.0, 45.0, 256.0, 168.0 ],
					"viewvisibility" : 1
				}

			}
, 			{
				"box" : 				{
					"args" : [ 16, 15, 14, 13, 12, 11, 10, 9 ],
					"bgmode" : 0,
					"border" : 0,
					"clickthrough" : 0,
					"enablehscroll" : 0,
					"enablevscroll" : 0,
					"id" : "obj-184",
					"lockeddragscroll" : 0,
					"maxclass" : "bpatcher",
					"name" : "Slave_channels.maxpat",
					"numinlets" : 3,
					"numoutlets" : 0,
					"offset" : [ 0.0, 0.0 ],
					"patching_rect" : [ 453.0, 45.0, 256.0, 168.0 ],
					"viewvisibility" : 1
				}

			}
, 			{
				"box" : 				{
					"args" : [ 24, 23, 22, 21, 20, 19, 18, 17 ],
					"bgmode" : 0,
					"border" : 0,
					"clickthrough" : 0,
					"enablehscroll" : 0,
					"enablevscroll" : 0,
					"id" : "obj-174",
					"lockeddragscroll" : 0,
					"maxclass" : "bpatcher",
					"name" : "Slave_channels.maxpat",
					"numinlets" : 3,
					"numoutlets" : 0,
					"offset" : [ 0.0, 0.0 ],
					"patching_rect" : [ 710.0, 45.0, 256.0, 168.0 ],
					"viewvisibility" : 1
				}

			}
, 			{
				"box" : 				{
					"fontname" : "Arial",
					"fontsize" : 18.0,
					"id" : "obj-166",
					"maxclass" : "comment",
					"numinlets" : 1,
					"numoutlets" : 0,
					"patching_rect" : [ 1056.0, 215.0, 78.0, 27.0 ],
					"style" : "",
					"text" : "slave #4",
					"textcolor" : [ 1.0, 0.0, 0.0, 1.0 ],
					"textjustification" : 2
				}

			}
, 			{
				"box" : 				{
					"id" : "obj-164",
					"maxclass" : "comment",
					"numinlets" : 1,
					"numoutlets" : 0,
					"patching_rect" : [ 99.0, 168.638123, 40.0, 20.0 ],
					"style" : "",
					"text" : "on/off",
					"textjustification" : 2
				}

			}
, 			{
				"box" : 				{
					"id" : "obj-162",
					"maxclass" : "comment",
					"numinlets" : 1,
					"numoutlets" : 0,
					"patching_rect" : [ 106.0, 98.566711, 33.0, 20.0 ],
					"style" : "",
					"text" : "gain",
					"textjustification" : 2
				}

			}
, 			{
				"box" : 				{
					"id" : "obj-160",
					"maxclass" : "comment",
					"numinlets" : 1,
					"numoutlets" : 0,
					"patching_rect" : [ 99.0, 47.0, 38.0, 20.0 ],
					"style" : "",
					"text" : "frequ",
					"textjustification" : 2
				}

			}
, 			{
				"box" : 				{
					"format" : 6,
					"id" : "obj-158",
					"maxclass" : "flonum",
					"numinlets" : 1,
					"numoutlets" : 2,
					"outlettype" : [ "", "bang" ],
					"parameter_enable" : 0,
					"patching_rect" : [ 141.0, 45.0, 50.0, 22.0 ],
					"style" : ""
				}

			}
, 			{
				"box" : 				{
					"id" : "obj-141",
					"maxclass" : "ezdac~",
					"numinlets" : 2,
					"numoutlets" : 0,
					"patching_rect" : [ 16.69989, 85.066711, 45.0, 45.0 ],
					"style" : ""
				}

			}
, 			{
				"box" : 				{
					"id" : "obj-140",
					"maxclass" : "toggle",
					"numinlets" : 1,
					"numoutlets" : 1,
					"outlettype" : [ "int" ],
					"parameter_enable" : 0,
					"patching_rect" : [ 167.0, 164.638123, 24.0, 24.0 ],
					"style" : ""
				}

			}
, 			{
				"box" : 				{
					"id" : "obj-136",
					"maxclass" : "message",
					"numinlets" : 2,
					"numoutlets" : 1,
					"outlettype" : [ "" ],
					"patching_rect" : [ 161.5, 71.066711, 29.5, 22.0 ],
					"style" : "",
					"text" : "0."
				}

			}
, 			{
				"box" : 				{
					"args" : [ 32, 31, 30, 29, 28, 27, 26, 25 ],
					"bgmode" : 0,
					"border" : 0,
					"clickthrough" : 0,
					"enablehscroll" : 0,
					"enablevscroll" : 0,
					"id" : "obj-133",
					"lockeddragscroll" : 0,
					"maxclass" : "bpatcher",
					"name" : "Slave_channels.maxpat",
					"numinlets" : 3,
					"numoutlets" : 0,
					"offset" : [ 0.0, 0.0 ],
					"patching_rect" : [ 967.0, 45.0, 256.0, 168.0 ],
					"viewvisibility" : 1
				}

			}
, 			{
				"box" : 				{
					"id" : "obj-88",
					"maxclass" : "message",
					"numinlets" : 2,
					"numoutlets" : 1,
					"outlettype" : [ "" ],
					"patching_rect" : [ 160.0, 122.219116, 31.0, 22.0 ],
					"style" : "",
					"text" : "-70."
				}

			}
, 			{
				"box" : 				{
					"id" : "obj-86",
					"maxclass" : "message",
					"numinlets" : 2,
					"numoutlets" : 1,
					"outlettype" : [ "" ],
					"patching_rect" : [ 160.0, 96.566711, 31.0, 22.0 ],
					"style" : "",
					"text" : "-20."
				}

			}
, 			{
				"box" : 				{
					"id" : "obj-9",
					"linecount" : 2,
					"maxclass" : "comment",
					"numinlets" : 1,
					"numoutlets" : 0,
					"patching_rect" : [ 45.699905, 266.5, 93.0, 33.0 ],
					"style" : "",
					"text" : "open/close\nselected device"
				}

			}
, 			{
				"box" : 				{
					"id" : "obj-6",
					"maxclass" : "comment",
					"numinlets" : 1,
					"numoutlets" : 0,
					"patching_rect" : [ 45.699905, 244.0, 120.0, 20.0 ],
					"style" : "",
					"text" : "list available devices"
				}

			}
, 			{
				"box" : 				{
					"id" : "obj-7",
					"maxclass" : "toggle",
					"numinlets" : 1,
					"numoutlets" : 1,
					"outlettype" : [ "int" ],
					"parameter_enable" : 0,
					"patching_rect" : [ 16.69989, 271.0, 24.0, 24.0 ],
					"style" : ""
				}

			}
, 			{
				"box" : 				{
					"id" : "obj-5",
					"maxclass" : "button",
					"numinlets" : 1,
					"numoutlets" : 1,
					"outlettype" : [ "bang" ],
					"patching_rect" : [ 16.69989, 242.0, 24.0, 24.0 ],
					"style" : ""
				}

			}
 ],
		"lines" : [ 			{
				"patchline" : 				{
					"destination" : [ "obj-24", 0 ],
					"disabled" : 0,
					"hidden" : 1,
					"source" : [ "obj-10", 0 ]
				}

			}
, 			{
				"patchline" : 				{
					"destination" : [ "obj-24", 0 ],
					"disabled" : 0,
					"hidden" : 0,
					"source" : [ "obj-11", 0 ]
				}

			}
, 			{
				"patchline" : 				{
					"destination" : [ "obj-133", 1 ],
					"disabled" : 0,
					"hidden" : 1,
					"source" : [ "obj-136", 0 ]
				}

			}
, 			{
				"patchline" : 				{
					"destination" : [ "obj-174", 1 ],
					"disabled" : 0,
					"hidden" : 1,
					"source" : [ "obj-136", 0 ]
				}

			}
, 			{
				"patchline" : 				{
					"destination" : [ "obj-184", 1 ],
					"disabled" : 0,
					"hidden" : 1,
					"source" : [ "obj-136", 0 ]
				}

			}
, 			{
				"patchline" : 				{
					"destination" : [ "obj-194", 1 ],
					"disabled" : 0,
					"hidden" : 1,
					"source" : [ "obj-136", 0 ]
				}

			}
, 			{
				"patchline" : 				{
					"destination" : [ "obj-133", 0 ],
					"disabled" : 0,
					"hidden" : 1,
					"source" : [ "obj-140", 0 ]
				}

			}
, 			{
				"patchline" : 				{
					"destination" : [ "obj-174", 0 ],
					"disabled" : 0,
					"hidden" : 1,
					"source" : [ "obj-140", 0 ]
				}

			}
, 			{
				"patchline" : 				{
					"destination" : [ "obj-184", 0 ],
					"disabled" : 0,
					"hidden" : 1,
					"source" : [ "obj-140", 0 ]
				}

			}
, 			{
				"patchline" : 				{
					"destination" : [ "obj-194", 0 ],
					"disabled" : 0,
					"hidden" : 1,
					"source" : [ "obj-140", 0 ]
				}

			}
, 			{
				"patchline" : 				{
					"destination" : [ "obj-133", 2 ],
					"disabled" : 0,
					"hidden" : 1,
					"source" : [ "obj-158", 0 ]
				}

			}
, 			{
				"patchline" : 				{
					"destination" : [ "obj-174", 2 ],
					"disabled" : 0,
					"hidden" : 1,
					"source" : [ "obj-158", 0 ]
				}

			}
, 			{
				"patchline" : 				{
					"destination" : [ "obj-184", 2 ],
					"disabled" : 0,
					"hidden" : 1,
					"source" : [ "obj-158", 0 ]
				}

			}
, 			{
				"patchline" : 				{
					"destination" : [ "obj-194", 2 ],
					"disabled" : 0,
					"hidden" : 1,
					"source" : [ "obj-158", 0 ]
				}

			}
, 			{
				"patchline" : 				{
					"destination" : [ "obj-205", 0 ],
					"disabled" : 0,
					"hidden" : 1,
					"source" : [ "obj-18", 0 ]
				}

			}
, 			{
				"patchline" : 				{
					"destination" : [ "obj-158", 0 ],
					"disabled" : 0,
					"hidden" : 1,
					"midpoints" : [ 61.19989, 25.133301, 150.5, 25.133301 ],
					"source" : [ "obj-199", 0 ]
				}

			}
, 			{
				"patchline" : 				{
					"destination" : [ "obj-199", 0 ],
					"disabled" : 0,
					"hidden" : 1,
					"source" : [ "obj-200", 0 ]
				}

			}
, 			{
				"patchline" : 				{
					"destination" : [ "obj-24", 0 ],
					"disabled" : 0,
					"hidden" : 1,
					"source" : [ "obj-205", 0 ]
				}

			}
, 			{
				"patchline" : 				{
					"destination" : [ "obj-205", 0 ],
					"disabled" : 0,
					"hidden" : 1,
					"source" : [ "obj-23", 0 ]
				}

			}
, 			{
				"patchline" : 				{
					"destination" : [ "obj-1", 1 ],
					"disabled" : 0,
					"hidden" : 0,
					"source" : [ "obj-24", 1 ]
				}

			}
, 			{
				"patchline" : 				{
					"destination" : [ "obj-1", 0 ],
					"disabled" : 0,
					"hidden" : 0,
					"source" : [ "obj-24", 0 ]
				}

			}
, 			{
				"patchline" : 				{
					"destination" : [ "obj-62", 1 ],
					"disabled" : 0,
					"hidden" : 0,
					"source" : [ "obj-24", 1 ]
				}

			}
, 			{
				"patchline" : 				{
					"destination" : [ "obj-205", 0 ],
					"disabled" : 0,
					"hidden" : 1,
					"source" : [ "obj-28", 0 ]
				}

			}
, 			{
				"patchline" : 				{
					"destination" : [ "obj-205", 0 ],
					"disabled" : 0,
					"hidden" : 1,
					"source" : [ "obj-29", 0 ]
				}

			}
, 			{
				"patchline" : 				{
					"destination" : [ "obj-205", 0 ],
					"disabled" : 0,
					"hidden" : 1,
					"source" : [ "obj-30", 0 ]
				}

			}
, 			{
				"patchline" : 				{
					"destination" : [ "obj-205", 0 ],
					"disabled" : 0,
					"hidden" : 1,
					"source" : [ "obj-31", 0 ]
				}

			}
, 			{
				"patchline" : 				{
					"destination" : [ "obj-205", 0 ],
					"disabled" : 0,
					"hidden" : 1,
					"source" : [ "obj-33", 0 ]
				}

			}
, 			{
				"patchline" : 				{
					"destination" : [ "obj-205", 0 ],
					"disabled" : 0,
					"hidden" : 1,
					"source" : [ "obj-34", 0 ]
				}

			}
, 			{
				"patchline" : 				{
					"destination" : [ "obj-4", 0 ],
					"disabled" : 0,
					"hidden" : 1,
					"source" : [ "obj-35", 0 ]
				}

			}
, 			{
				"patchline" : 				{
					"destination" : [ "obj-4", 0 ],
					"disabled" : 0,
					"hidden" : 1,
					"source" : [ "obj-36", 0 ]
				}

			}
, 			{
				"patchline" : 				{
					"destination" : [ "obj-4", 0 ],
					"disabled" : 0,
					"hidden" : 1,
					"source" : [ "obj-37", 0 ]
				}

			}
, 			{
				"patchline" : 				{
					"destination" : [ "obj-4", 0 ],
					"disabled" : 0,
					"hidden" : 1,
					"source" : [ "obj-38", 0 ]
				}

			}
, 			{
				"patchline" : 				{
					"destination" : [ "obj-4", 0 ],
					"disabled" : 0,
					"hidden" : 1,
					"source" : [ "obj-39", 0 ]
				}

			}
, 			{
				"patchline" : 				{
					"destination" : [ "obj-24", 0 ],
					"disabled" : 0,
					"hidden" : 0,
					"source" : [ "obj-4", 0 ]
				}

			}
, 			{
				"patchline" : 				{
					"destination" : [ "obj-4", 0 ],
					"disabled" : 0,
					"hidden" : 1,
					"source" : [ "obj-40", 0 ]
				}

			}
, 			{
				"patchline" : 				{
					"destination" : [ "obj-4", 0 ],
					"disabled" : 0,
					"hidden" : 1,
					"source" : [ "obj-41", 0 ]
				}

			}
, 			{
				"patchline" : 				{
					"destination" : [ "obj-4", 0 ],
					"disabled" : 0,
					"hidden" : 1,
					"source" : [ "obj-42", 0 ]
				}

			}
, 			{
				"patchline" : 				{
					"destination" : [ "obj-11", 0 ],
					"disabled" : 0,
					"hidden" : 1,
					"source" : [ "obj-43", 0 ]
				}

			}
, 			{
				"patchline" : 				{
					"destination" : [ "obj-11", 0 ],
					"disabled" : 0,
					"hidden" : 1,
					"source" : [ "obj-44", 0 ]
				}

			}
, 			{
				"patchline" : 				{
					"destination" : [ "obj-11", 0 ],
					"disabled" : 0,
					"hidden" : 1,
					"source" : [ "obj-45", 0 ]
				}

			}
, 			{
				"patchline" : 				{
					"destination" : [ "obj-11", 0 ],
					"disabled" : 0,
					"hidden" : 1,
					"source" : [ "obj-46", 0 ]
				}

			}
, 			{
				"patchline" : 				{
					"destination" : [ "obj-11", 0 ],
					"disabled" : 0,
					"hidden" : 1,
					"source" : [ "obj-47", 0 ]
				}

			}
, 			{
				"patchline" : 				{
					"destination" : [ "obj-11", 0 ],
					"disabled" : 0,
					"hidden" : 1,
					"source" : [ "obj-48", 0 ]
				}

			}
, 			{
				"patchline" : 				{
					"destination" : [ "obj-11", 0 ],
					"disabled" : 0,
					"hidden" : 1,
					"source" : [ "obj-49", 0 ]
				}

			}
, 			{
				"patchline" : 				{
					"destination" : [ "obj-11", 0 ],
					"disabled" : 0,
					"hidden" : 1,
					"source" : [ "obj-50", 0 ]
				}

			}
, 			{
				"patchline" : 				{
					"destination" : [ "obj-10", 0 ],
					"disabled" : 0,
					"hidden" : 1,
					"source" : [ "obj-51", 0 ]
				}

			}
, 			{
				"patchline" : 				{
					"destination" : [ "obj-10", 0 ],
					"disabled" : 0,
					"hidden" : 1,
					"source" : [ "obj-52", 0 ]
				}

			}
, 			{
				"patchline" : 				{
					"destination" : [ "obj-10", 0 ],
					"disabled" : 0,
					"hidden" : 1,
					"source" : [ "obj-53", 0 ]
				}

			}
, 			{
				"patchline" : 				{
					"destination" : [ "obj-10", 0 ],
					"disabled" : 0,
					"hidden" : 1,
					"source" : [ "obj-54", 0 ]
				}

			}
, 			{
				"patchline" : 				{
					"destination" : [ "obj-10", 0 ],
					"disabled" : 0,
					"hidden" : 1,
					"source" : [ "obj-55", 0 ]
				}

			}
, 			{
				"patchline" : 				{
					"destination" : [ "obj-10", 0 ],
					"disabled" : 0,
					"hidden" : 1,
					"source" : [ "obj-56", 0 ]
				}

			}
, 			{
				"patchline" : 				{
					"destination" : [ "obj-10", 0 ],
					"disabled" : 0,
					"hidden" : 1,
					"source" : [ "obj-57", 0 ]
				}

			}
, 			{
				"patchline" : 				{
					"destination" : [ "obj-10", 0 ],
					"disabled" : 0,
					"hidden" : 1,
					"source" : [ "obj-58", 0 ]
				}

			}
, 			{
				"patchline" : 				{
					"destination" : [ "obj-133", 1 ],
					"disabled" : 0,
					"hidden" : 1,
					"source" : [ "obj-86", 0 ]
				}

			}
, 			{
				"patchline" : 				{
					"destination" : [ "obj-174", 1 ],
					"disabled" : 0,
					"hidden" : 1,
					"source" : [ "obj-86", 0 ]
				}

			}
, 			{
				"patchline" : 				{
					"destination" : [ "obj-184", 1 ],
					"disabled" : 0,
					"hidden" : 1,
					"source" : [ "obj-86", 0 ]
				}

			}
, 			{
				"patchline" : 				{
					"destination" : [ "obj-194", 1 ],
					"disabled" : 0,
					"hidden" : 1,
					"source" : [ "obj-86", 0 ]
				}

			}
, 			{
				"patchline" : 				{
					"destination" : [ "obj-133", 1 ],
					"disabled" : 0,
					"hidden" : 1,
					"source" : [ "obj-88", 0 ]
				}

			}
, 			{
				"patchline" : 				{
					"destination" : [ "obj-174", 1 ],
					"disabled" : 0,
					"hidden" : 1,
					"source" : [ "obj-88", 0 ]
				}

			}
, 			{
				"patchline" : 				{
					"destination" : [ "obj-184", 1 ],
					"disabled" : 0,
					"hidden" : 1,
					"source" : [ "obj-88", 0 ]
				}

			}
, 			{
				"patchline" : 				{
					"destination" : [ "obj-194", 1 ],
					"disabled" : 0,
					"hidden" : 1,
					"source" : [ "obj-88", 0 ]
				}

			}
 ],
		"parameters" : 		{
			"obj-133::obj-134::obj-84" : [ "live.gain~[6]", "live.gain~", 0 ],
			"obj-174::obj-132::obj-84" : [ "live.gain~[12]", "live.gain~", 0 ],
			"obj-184::obj-128::obj-84" : [ "live.gain~[17]", "live.gain~", 0 ],
			"obj-184::obj-134::obj-84" : [ "live.gain~[22]", "live.gain~", 0 ],
			"obj-194::obj-129::obj-84" : [ "live.gain~[27]", "live.gain~", 0 ],
			"obj-133::obj-129::obj-84" : [ "live.gain~[3]", "live.gain~", 0 ],
			"obj-174::obj-21::obj-84" : [ "live.gain~[8]", "live.gain~", 0 ],
			"obj-174::obj-131::obj-84" : [ "live.gain~[13]", "live.gain~", 0 ],
			"obj-184::obj-130::obj-84" : [ "live.gain~[18]", "live.gain~", 0 ],
			"obj-184::obj-133::obj-84" : [ "live.gain~[23]", "live.gain~", 0 ],
			"obj-194::obj-132::obj-84" : [ "live.gain~[28]", "live.gain~", 0 ],
			"obj-133::obj-132::obj-84" : [ "live.gain~[4]", "live.gain~", 0 ],
			"obj-133::obj-133::obj-84" : [ "live.gain~[7]", "live.gain~", 0 ],
			"obj-174::obj-128::obj-84" : [ "live.gain~[9]", "live.gain~", 0 ],
			"obj-174::obj-134::obj-84" : [ "live.gain~[14]", "live.gain~", 0 ],
			"obj-184::obj-129::obj-84" : [ "live.gain~[19]", "live.gain~", 0 ],
			"obj-194::obj-21::obj-84" : [ "live.gain~[24]", "live.gain~", 0 ],
			"obj-194::obj-131::obj-84" : [ "live.gain~[29]", "live.gain~", 0 ],
			"obj-133::obj-131::obj-84" : [ "live.gain~[5]", "live.gain~", 0 ],
			"obj-133::obj-21::obj-84" : [ "live.gain~[32]", "live.gain~", 0 ],
			"obj-174::obj-130::obj-84" : [ "live.gain~[10]", "live.gain~", 0 ],
			"obj-174::obj-133::obj-84" : [ "live.gain~[15]", "live.gain~", 0 ],
			"obj-184::obj-132::obj-84" : [ "live.gain~[20]", "live.gain~", 0 ],
			"obj-194::obj-128::obj-84" : [ "live.gain~[25]", "live.gain~", 0 ],
			"obj-194::obj-134::obj-84" : [ "live.gain~[30]", "live.gain~", 0 ],
			"obj-133::obj-128::obj-84" : [ "live.gain~[1]", "live.gain~", 0 ],
			"obj-174::obj-129::obj-84" : [ "live.gain~[11]", "live.gain~", 0 ],
			"obj-184::obj-21::obj-84" : [ "live.gain~[16]", "live.gain~", 0 ],
			"obj-184::obj-131::obj-84" : [ "live.gain~[21]", "live.gain~", 0 ],
			"obj-194::obj-130::obj-84" : [ "live.gain~[26]", "live.gain~", 0 ],
			"obj-194::obj-133::obj-84" : [ "live.gain~[31]", "live.gain~", 0 ],
			"obj-133::obj-130::obj-84" : [ "live.gain~[2]", "live.gain~", 0 ]
		}
,
		"dependency_cache" : [ 			{
				"name" : "Slave_channels.maxpat",
				"bootpath" : "~/_ICSTdocs/1-research/AHMI/01_projects/HSoundplane/code/max/HSoundplane/HS_Driver",
				"type" : "JSON",
				"implicit" : 1
			}
, 			{
				"name" : "Haptic_channel.maxpat",
				"bootpath" : "~/_ICSTdocs/1-research/AHMI/01_projects/HSoundplane/code/max/HSoundplane/HS_Driver",
				"type" : "JSON",
				"implicit" : 1
			}
, 			{
				"name" : "Touch_checkbox.maxpat",
				"bootpath" : "~/_ICSTdocs/1-research/AHMI/01_projects/HSoundplane/code/max/HSoundplane/HS_Driver",
				"type" : "JSON",
				"implicit" : 1
			}
, 			{
				"name" : "HSpad.maxpat",
				"bootpath" : "~/_ICSTdocs/1-research/AHMI/01_projects/HSoundplane/code/max/HSoundplane/HS_Driver",
				"type" : "JSON",
				"implicit" : 1
			}
, 			{
				"name" : "HSoundPlane_serial.maxpat",
				"bootpath" : "~/_ICSTdocs/1-research/AHMI/01_projects/HSoundplane/code/max/HSoundplane/_package/HSoundPlane/patchers",
				"type" : "JSON",
				"implicit" : 1
			}
, 			{
				"name" : "icst.button.mxo",
				"type" : "iLaX"
			}
 ],
		"autosave" : 0,
		"styles" : [ 			{
				"name" : "STYLE1",
				"parentstyle" : "",
				"multi" : 0
			}
, 			{
				"name" : "jpatcher001",
				"parentstyle" : "",
				"multi" : 0
			}
 ]
	}

}
